<?xml version="1.0" encoding="utf-8"?>
<!-- Generator: Adobe Illustrator 22.1.0, SVG Export Plug-In . SVG Version: 6.00 Build 0)  -->
<svg version="1.1" id="Capa_1" xmlns="http://www.w3.org/2000/svg" xmlns:xlink="http://www.w3.org/1999/xlink" x="0px" y="0px"
	 viewBox="0 0 512 512" style="enable-background:new 0 0 512 512;" xml:space="preserve">
<style type="text/css">
	.st0{fill:#0256B8;}
</style>
<g>
	<g>
		<path class="st0" d="M190.7,353.4c-0.6-0.2-1.3-0.3-1.9-0.4c9.7-10.1,15.6-23.8,15.6-38.8V268c0-0.4,0-0.9-0.1-1.2
			c0.1-0.9,0.1-1.7,0.1-2.5v-29.3c0-4.8-4-8.8-8.8-8.8h-59c-24.8,0-45,20.2-45,45v43.1c0,15,5.9,28.7,15.6,38.8
			c-0.6,0-1.3,0.2-1.9,0.4C63.7,357.2,31,392.1,31,434.7v37.5c0,4.8,4,8.8,8.8,8.8h216.3c4.8,0,8.8-4,8.8-8.8v-37.5
			C264.9,392.1,232.3,357.2,190.7,353.4z M109.1,282.4v-11.2c0-15.1,12.3-27.4,27.4-27.4h50.2v20.5c0,10.3-8.3,18.7-18.7,18.7h-58.9
			C109.1,283,109.1,282.4,109.1,282.4z M109.1,300.5H168c6.9,0,13.2-1.9,18.7-5.2v18.9c0,21.4-17.4,38.8-38.8,38.8
			s-38.8-17.4-38.8-38.8L109.1,300.5L109.1,300.5z M167.1,370.6l-19.2,19.2l-19.2-19.2H167.1z M247.3,463.4L247.3,463.4H48.6v-17.6
			h36.5c4.8,0,8.8-4,8.8-8.8s-4-8.8-8.8-8.8H48.9c3-29.6,26.2-53.3,55.6-57.1l37.3,37.3c1.7,1.7,3.9,2.5,6.2,2.5s4.6-1,6.2-2.5
			l37.3-37.3c31.5,4,55.9,30.9,55.9,63.5v28.8H247.3z"/>
	</g>
</g>
<g>
	<g>
		<path class="st0" d="M406.8,158.2c-0.6-0.2-1.3-0.3-1.9-0.4c9.7-10.1,15.6-23.8,15.6-38.8V72.8c0-0.4,0-0.9-0.1-1.2
			c0.1-0.9,0.1-1.7,0.1-2.5V39.8c0-4.8-4-8.8-8.8-8.8h-59c-24.8,0-45,20.2-45,45v43.1c0,15,5.9,28.7,15.6,38.8
			c-0.6,0-1.3,0.2-1.9,0.4c-41.6,3.8-74.2,38.8-74.2,81.3v37.5c0,4.8,4,8.8,8.8,8.8h70.8c4.8,0,8.8-4,8.8-8.8s-4-8.8-8.8-8.8h-62
			v-28.7c0-32.5,24.4-59.5,55.9-63.5l37.3,37.3c1.8,1.8,4,2.5,6.2,2.5s4.5-0.9,6.2-2.5l37.3-37.3c31.5,4,55.9,30.9,55.9,63.5v28.7
			h-64.8c-4.8,0-8.8,4-8.8,8.8s4,8.8,8.8,8.8h73.5c4.8,0,8.8-4,8.8-8.8v-37.5C481,196.9,448.3,162,406.8,158.2z M364,194.6
			l-19.2-19.2h38.2L364,194.6z M402.9,119.1c0,21.4-17.4,38.8-38.8,38.8s-38.8-17.4-38.8-38.8v-13.8h58.9c6.9,0,13.2-1.9,18.7-5.2
			L402.9,119.1L402.9,119.1z M402.9,69.1c0,10.3-8.3,18.7-18.7,18.7h-58.9v-0.5V76c0-15.1,12.3-27.4,27.4-27.4h50.2L402.9,69.1
			L402.9,69.1z"/>
	</g>
</g>
<g>
	<g>
		<path class="st0" d="M370.3,270.8c-1.7-1.7-3.9-2.5-6.2-2.5c-2.3,0-4.6,1-6.2,2.5c-1.7,1.7-2.5,3.9-2.5,6.2c0,2.3,1,4.6,2.5,6.2
			c1.7,1.7,3.9,2.5,6.2,2.5c2.3,0,4.6-1,6.2-2.5c1.7-1.7,2.5-3.9,2.5-6.2C372.8,274.7,371.9,272.4,370.3,270.8z"/>
	</g>
</g>
<g>
	<g>
		<path class="st0" d="M266,154l-36.7-36.7V74.9c0-24.3-19.7-43.9-43.9-43.9H74.9C50.7,31,31,50.7,31,74.9v77.3
			c0,24.3,19.7,43.9,43.9,43.9h110.4c18.2,0,34-10.9,40.7-27.2h33.8c3.5,0,6.8-2.1,8.1-5.4C269.3,160.3,268.6,156.5,266,154z
			 M219.6,151.4c-4.1,0-7.6,2.8-8.5,6.9c-2.7,12-13.4,20.4-25.7,20.4H74.9c-14.5,0-26.4-11.9-26.4-26.4V74.9
			c0-14.5,11.9-26.4,26.4-26.4h110.4c14.5,0,26.4,11.9,26.4,26.4v46c0,2.4,1,4.6,2.5,6.2l24.3,24.3L219.6,151.4L219.6,151.4z"/>
	</g>
</g>
<g>
	<g>
		<path class="st0" d="M437.1,315.8H326.7c-18.2,0-34,10.9-40.7,27.2h-33.8c-3.5,0-6.8,2.1-8.1,5.4c-1.3,3.3-0.6,7,1.9,9.6
			l36.7,36.7v42.3c0,24.3,19.7,43.9,43.9,43.9h110.4c24.3,0,43.9-19.7,43.9-43.9v-77.3C481,335.5,461.3,315.8,437.1,315.8z
			 M463.4,437.1c0,14.5-11.9,26.4-26.4,26.4H326.7c-14.5,0-26.4-11.9-26.4-26.4v-46c0-2.4-1-4.6-2.5-6.2l-24.3-24.3h19
			c4.1,0,7.6-2.8,8.5-6.9c2.7-12,13.4-20.4,25.7-20.4h110.5c14.5,0,26.4,11.9,26.4,26.4V437.1z"/>
	</g>
</g>
<g>
	<g>
		<path class="st0" d="M421.4,375c-3.4-3.4-9-3.4-12.4,0l-23.5,23.4l-10.9-10.9c-3.4-3.4-9-3.4-12.4,0s-3.4,9,0,12.4l17.1,17.1
			c1.8,1.8,4,2.5,6.2,2.5s4.5-0.9,6.2-2.5l29.6-29.6C424.8,384,424.8,378.4,421.4,375z"/>
	</g>
</g>
<g>
	<g>
		<path class="st0" d="M170.1,89.3c-1.1-15-13.2-27.2-28.3-28.3c-8.5-0.6-16.7,2.3-22.9,8.1c-6.2,5.7-9.7,13.9-9.7,22.2
			c0,4.8,4,8.8,8.8,8.8s8.8-4,8.8-8.8c0-3.6,1.5-6.9,4.1-9.4s6.1-3.7,9.8-3.4c6.3,0.4,11.5,5.5,12,12c0.4,6.4-3.8,12.1-10,13.5
			c-6.9,1.5-11.6,7.5-11.6,14.5v4.7c0,4.8,4,8.8,8.8,8.8s8.8-4,8.8-8.8v-2.5C162.1,116.5,171.1,103.7,170.1,89.3z"/>
	</g>
</g>
<g>
	<g>
		<path class="st0" d="M145.9,150.5c-1.7-1.7-3.9-2.5-6.2-2.5c-2.3,0-4.6,1-6.2,2.5c-1.7,1.7-2.5,3.9-2.5,6.2c0,2.4,1,4.6,2.5,6.2
			c1.7,1.7,3.9,2.5,6.2,2.5c2.3,0,4.6-1,6.2-2.5c1.7-1.7,2.5-3.9,2.5-6.2C148.4,154.4,147.5,152.2,145.9,150.5z"/>
	</g>
</g>
<g>
	<g>
		<path class="st0" d="M126.4,430.8c-1.7-1.7-3.9-2.5-6.2-2.5s-4.6,1-6.2,2.5c-1.7,1.6-2.5,3.9-2.5,6.2s1,4.6,2.5,6.2
			c1.7,1.7,3.9,2.5,6.2,2.5s4.6-1,6.2-2.5c1.7-1.6,2.5-3.9,2.5-6.2S128,432.5,126.4,430.8z"/>
	</g>
</g>
</svg>
