<?xml version="1.0" encoding="utf-8"?>
<!-- Generator: Adobe Illustrator 22.1.0, SVG Export Plug-In . SVG Version: 6.00 Build 0)  -->
<svg version="1.1" id="Слой_1" xmlns="http://www.w3.org/2000/svg" xmlns:xlink="http://www.w3.org/1999/xlink" x="0px" y="0px"
	 viewBox="0 0 496 496" style="enable-background:new 0 0 496 496;" xml:space="preserve">
<style type="text/css">
	.st0{fill:#0256B8;}
</style>
<path class="st0" d="M466.1,269.5c-28,0-50.8-22.8-50.8-50.8v-7.3h-72.6V22.7H100.2L23.4,99.5v344.1h292.8
	c13.4,11.5,28.6,21.2,45.4,28.4l2.9,1.2l2.9-1.2c64.4-27.6,106-90.7,106-160.8v-41.9H466.1z M48.1,95.3l47.8-47.8v47.8H48.1z
	 M66.9,109.8h43.5V66.2h188.7v72.6H66.9V109.8z M37.9,109.8h14.5v43.5h261.3V51.7H110.4V37.2h217.7v174.2h-14.5v7.3
	c0,28-22.8,50.8-50.8,50.8h-7.3v41.9c0,44.5,16.9,86.2,45.7,117.8H37.9V109.8z M458.8,311.3c0,63.2-36.9,120.2-94.4,146.2
	c-57.4-25.9-94.4-83-94.4-146.2v-27.8c30.2-3.4,54.3-27.4,57.7-57.7h73.4c3.4,30.2,27.4,54.3,57.7,57.7L458.8,311.3L458.8,311.3z"/>
<path class="st0" d="M395.7,316.6l19-44.3l-13.3-5.7l-18.3,42.7c-5.8-2.3-12-3.6-18.6-3.6c-28,0-50.8,22.8-50.8,50.8
	s22.8,50.8,50.8,50.8s50.8-22.8,50.8-50.8C415.3,340.3,407.6,325.9,395.7,316.6z M364.5,392.8c-20,0-36.3-16.3-36.3-36.3
	c0-20,16.3-36.3,36.3-36.3c4.5,0,8.8,0.9,12.8,2.5l-16.1,37.5l-14.5-9.7l-8.1,12.1l29,19.4l22-51.4c6.8,6.6,11,15.8,11,26
	C400.8,376.6,384.5,392.8,364.5,392.8z"/>
<path class="st0" d="M52.4,414.6h188.7V284H52.4V414.6z M66.9,298.5h159.7v101.6H66.9V298.5z"/>
<path class="st0" d="M81.4,167.8h159.7v14.5H81.4V167.8z"/>
<path class="st0" d="M52.4,167.8h14.5v14.5H52.4V167.8z"/>
<path class="st0" d="M52.4,196.9h188.7v14.5H52.4V196.9z"/>
<path class="st0" d="M52.4,225.9h188.7v14.5H52.4V225.9z"/>
<path class="st0" d="M52.4,254.9h188.7v14.5H52.4V254.9z"/>
</svg>
