<?xml version="1.0" encoding="utf-8"?>
<!-- Generator: Adobe Illustrator 22.1.0, SVG Export Plug-In . SVG Version: 6.00 Build 0)  -->
<svg version="1.1" id="Layer_1" xmlns="http://www.w3.org/2000/svg" xmlns:xlink="http://www.w3.org/1999/xlink" x="0px" y="0px"
	 viewBox="0 0 512 512" style="enable-background:new 0 0 512 512;" xml:space="preserve">
<style type="text/css">
	.st0{fill:#0256B8;}
</style>
<g>
	<g>
		<g>
			<path class="st0" d="M461.8,188l-37.7-7.5c-2.5-8-5.7-15.7-9.6-23.1l21.3-32c6.3-9.4,5-22.1-3-30.2l-16.2-16.2
				c-8-8-20.7-9.3-30.2-3l-32,21.3c-7.4-3.9-15.1-7.1-23.1-9.6L324,50.2C321.8,39.1,311.9,31,300.6,31h-22.8
				c-11.4,0-21.2,8.1-23.4,19.2l-7.5,37.7c-8,2.5-15.7,5.7-23.1,9.6l-32-21.3c-9.4-6.3-22.1-5-30.2,3l-16.2,16.2
				c-8,8-9.3,20.7-3,30.2l21.3,32c-3.9,7.4-7.1,15.1-9.6,23.1l-37.7,7.5c-11.1,2.2-19.2,12.1-19.2,23.4v22.8
				c0,11.4,8.1,21.2,19.2,23.4l24.4,4.9c3.8,0.8,7.6-1.7,8.4-5.6c0.8-3.8-1.7-7.6-5.6-8.4l-24.4-4.9c-4.5-0.9-7.8-4.9-7.8-9.5v-22.8
				c0-4.6,3.3-8.6,7.8-9.5l41.9-8.4c2.6-0.5,4.7-2.5,5.4-5.1c2.7-9.8,6.6-19.2,11.6-28c1.3-2.3,1.2-5.2-0.3-7.4l-23.7-35.5
				c-2.6-3.8-2-9,1.2-12.2l16.2-16.2c3.3-3.3,8.4-3.8,12.2-1.2l35.5,23.7c2.2,1.5,5.1,1.6,7.4,0.3c8.8-5,18.2-8.9,28-11.6
				c2.6-0.7,4.5-2.8,5.1-5.4l8.4-41.9c0.9-4.5,4.9-7.8,9.5-7.8h22.8c4.6,0,8.6,3.3,9.5,7.8l8.4,41.9c0.5,2.6,2.5,4.7,5.1,5.4
				c9.8,2.7,19.2,6.6,28,11.6c2.3,1.3,5.2,1.2,7.4-0.3l35.5-23.7c3.8-2.6,9-2,12.2,1.2l16.2,16.2c3.3,3.3,3.8,8.4,1.2,12.2
				l-23.7,35.5c-1.5,2.2-1.6,5.1-0.3,7.4c5,8.8,8.9,18.2,11.6,28c0.7,2.6,2.8,4.5,5.4,5.1l41.9,8.4c4.5,0.9,7.8,4.9,7.8,9.5v22.8
				c0,4.6-3.3,8.6-7.8,9.5l-41.9,8.4c-2.6,0.5-4.7,2.5-5.4,5.1c-2.7,9.8-6.6,19.2-11.6,28c-1.3,2.3-1.2,5.2,0.3,7.4l23.7,35.5
				c2.6,3.8,2,9-1.2,12.2l-16.2,16.2c-3.3,3.3-8.4,3.8-12.2,1.2L358.9,334c-3.3-2.2-7.7-1.3-9.9,2c-2.2,3.3-1.3,7.7,2,9.9l35.5,23.7
				c4,2.7,8.6,4,13.2,4c6.2,0,12.3-2.4,16.9-7l16.2-16.2c8-8,9.3-20.7,3-30.2l-21.3-32c3.9-7.4,7.1-15.1,9.6-23.1l37.7-7.5
				c11.1-2.2,19.2-12.1,19.2-23.4v-22.8C481,200.1,472.9,190.2,461.8,188z"/>
			<path class="st0" d="M312.8,277.3h-66.3c-3.9,0-7.1,3.2-7.1,7.1c0,3.9,3.2,7.1,7.1,7.1h66.3c6.5,0,11.8,5.3,11.8,11.8v9.5
				c0,6.5-5.3,11.8-11.8,11.8h-66.3c-3.9,0-7.1,3.2-7.1,7.1c0,3.9,3.2,7.1,7.1,7.1h66.3c6.5,0,11.8,5.3,11.8,11.8v9.5
				c0,6.5-5.3,11.8-11.8,11.8h-66.3c-3.9,0-7.1,3.2-7.1,7.1s3.2,7.1,7.1,7.1h66.3c6.5,0,11.8,5.3,11.8,11.8v9.5
				c0,6.5-5.3,11.8-11.8,11.8h-66.3c-3.9,0-7.1,3.2-7.1,7.1s3.2,7.1,7.1,7.1h66.3c6.5,0,11.8,5.3,11.8,11.8v9.5
				c0,6.5-5.3,11.8-11.8,11.8H184.1c-6.7,0-13-2.6-17.8-7.3c-7.5-7.5-17.4-11.6-27.9-11.6H121v-78.2c0-3.9-3.2-7.1-7.1-7.1
				c-3.9,0-7.1,3.2-7.1,7.1v94.7c0,1.3-1.1,2.4-2.4,2.4H83.1v-97.1c0-3.9-3.2-7.1-7.1-7.1s-7.1,3.2-7.1,7.1v97.1H47.6
				c-1.3,0-2.4-1.1-2.4-2.4V303.4c0-1.3,1.1-2.4,2.4-2.4h56.8c1.3,0,2.4,1.1,2.4,2.4v37.9c0,3.9,3.2,7.1,7.1,7.1
				c3.9,0,7.1-3.2,7.1-7.1v-21.3h17.1c11.2,0,21.2-7.2,24.7-17.8l2.6-7.9c8.2-24.6,12.3-50.2,12.3-76.1c0-6.5,5.3-11.8,11.8-11.8
				c5.7,0,11,2.2,15.1,6.2c4,4,6.2,9.4,6.2,15.1v75.8c0,3.9,3.2,7.1,7.1,7.1c3.9,0,7.1-3.2,7.1-7.1v-75.8c0-9.5-3.7-18.4-10.4-25.1
				c-6.7-6.7-15.6-10.4-25.1-10.4c-14.4,0-26.1,11.7-26.1,26.1c0,24.4-3.9,48.5-11.6,71.6l-2.6,7.9c-1.6,4.8-6.1,8.1-11.2,8.1H121
				v-2.4c0-9.1-7.4-16.6-16.6-16.6H47.6c-9.1,0-16.6,7.4-16.6,16.6v161.1c0,9.1,7.4,16.6,16.6,16.6h56.8c9.1,0,16.6-7.4,16.6-16.6
				v-2.4h17.4c6.7,0,13.1,2.7,17.9,7.5c7.4,7.4,17.3,11.5,27.8,11.5h128.7c14.4,0,26.1-11.7,26.1-26.1v-9.5c0-7.5-3.2-14.2-8.2-18.9
				c5-4.8,8.2-11.5,8.2-18.9v-9.5c0-7.5-3.2-14.2-8.2-18.9c5-4.8,8.2-11.5,8.2-18.9v-9.5c0-7.5-3.2-14.2-8.2-18.9
				c5-4.8,8.2-11.5,8.2-18.9v-9.5C338.9,289,327.2,277.3,312.8,277.3z"/>
			<path class="st0" d="M289.1,259.3c1.9,0,3.7-0.1,5.6-0.4c19.9-3.1,33.5-21.8,30.4-41.7c-3.1-19.9-21.8-33.5-41.7-30.4
				c-19.9,3.1-33.5,21.8-30.4,41.7C255.9,246.4,271.5,259.3,289.1,259.3z M285.7,200.8c12.1-1.9,23.5,6.4,25.4,18.6
				c1.9,12.1-6.4,23.5-18.6,25.4c-12.1,1.9-23.5-6.4-25.4-18.6C265.3,214.1,273.6,202.7,285.7,200.8z"/>
			<path class="st0" d="M353.4,291.5c1.9,0,3.7-0.7,5.1-2.2c20.9-21.8,30.2-51.5,25.6-81.3c-2.4-15.2-8.1-29.1-17-41.5
				c-2.3-3.2-6.7-3.9-9.9-1.6c-3.2,2.3-3.9,6.7-1.6,9.9c7.6,10.5,12.5,22.4,14.5,35.3c4,25.4-4,50.7-21.8,69.3
				c-2.7,2.8-2.6,7.3,0.2,10C349.9,290.9,351.6,291.5,353.4,291.5z"/>
			<path class="st0" d="M348.4,156.1c2.4-3.1,1.7-7.6-1.4-10c-21-15.8-46.8-22.3-72.7-18.2c-29.7,4.6-55.1,22.5-69.5,48.9
				c-1.9,3.4-0.6,7.8,2.8,9.6c1.1,0.6,2.3,0.9,3.4,0.9c2.5,0,4.9-1.3,6.2-3.7c12.3-22.5,33.9-37.7,59.3-41.7
				c22.1-3.4,44.1,2.1,61.9,15.5C341.6,159.8,346,159.2,348.4,156.1z"/>
		</g>
	</g>
</g>
</svg>
