<?xml version="1.0" encoding="utf-8"?>
<!-- Generator: Adobe Illustrator 22.1.0, SVG Export Plug-In . SVG Version: 6.00 Build 0)  -->
<svg version="1.1" id="Слой_1" xmlns="http://www.w3.org/2000/svg" xmlns:xlink="http://www.w3.org/1999/xlink" x="0px" y="0px"
	 viewBox="0 0 512 512" style="enable-background:new 0 0 512 512;" xml:space="preserve">
<style type="text/css">
	.st0{fill:#0256B8;}
</style>
<path class="st0" d="M86.9,88.3H101v13.3H86.9V88.3z"/>
<path class="st0" d="M445.8,425.6H411v-13.3h21.5v-14.5h13.3V425.6z"/>
<path class="st0" d="M220.3,334.4H207v-38l10.9-10.9h2.7c15.7,0,28.7-12.8,28.7-28.7c0-15.7-12.8-28.6-28.7-28.6
	c-15.7,0-28.6,12.8-28.6,28.6h-13.3c0-23,18.8-41.8,41.8-41.8c23.1,0,41.8,18.8,41.8,41.8c0,22.1-17.2,40.3-39,41.7l-3.3,3.3
	L220.3,334.4L220.3,334.4z"/>
<path class="st0" d="M206.7,348.9h14.1v13.3h-14.1V348.9z"/>
<path class="st0" d="M277.1,299.6h14.1v13.3h-14.1V299.6z"/>
<path class="st0" d="M58.8,88.3h14.1v13.3H58.8C58.8,101.6,58.8,88.3,58.8,88.3z"/>
<path class="st0" d="M467.7,440.5H44.3V129.7h113.1v-13.3H44.3V73.4h331.5V60.1H31v393.7h450V327.4h-13.3V440.5z"/>
<path class="st0" d="M396.9,60.1v13.3h70.8v43.2H178.5v13.3h289.2v176.4H481V60.1H396.9z"/>
<path class="st0" d="M136.2,88.3h317v13.3h-317V88.3z"/>
<path class="st0" d="M72.4,214.6v-56.8h21.5v-13.3H59.2v70H72.4z"/>
<path class="st0" d="M432.1,370.1h14.1v13.3h-14.1V370.1z"/>
<path class="st0" d="M332.4,173.1l2.2-13c-5-0.8-10.1-1.2-15.2-1.2c-21.4,0-41.9,7.5-58.3,21.1c-12.9-4.7-26.5-7-40.3-7
	c-65.8,0-119.4,53.5-119.4,119.4s53.5,119.4,119.4,119.4c28.1,0,55.3-10,76.8-28.2h72.9L329.1,342c0.3-0.5,0.4-1,0.6-1.4
	c21.6-2.5,41.7-12.6,56.5-28.7c15.6-16.9,24.3-38.8,24.3-61.9c0-36.2-21.4-69.1-54.7-83.6l-5.3,12.1c28.4,12.4,46.8,40.4,46.8,71.5
	c0,19.7-7.4,38.5-20.7,52.9c-11.2,12-25.7,20.2-41.6,23.5c3.3-11.1,5.1-22.5,5.1-34.1c0-24.3-7.3-47.6-21-67.6
	c-11.3-16.5-26.5-29.7-44.1-38.7c13-9.1,28.4-13.9,44.4-13.9C323.8,172,328.2,172.4,332.4,173.1z M308.2,232
	c12.2,17.7,18.6,38.5,18.6,60.1c0,13.4-2.5,26.5-7.6,39.1l-0.1,0.2c-1,2.5-2.2,5.3-4,8.9l-2.1,4.3l25.6,25.6h-46l-1.8,1.7
	c-19.4,17.1-44.3,26.5-70,26.5c-58.5,0-106.1-47.6-106.1-106.1s47.6-106.1,106.1-106.1c13.6,0,27,2.5,39.6,7.6l0,0
	C279.7,201.4,296.3,214.7,308.2,232z"/>
<path class="st0" d="M277.1,271.5h14.1v13.3h-14.1V271.5z"/>
<path class="st0" d="M277.1,327.8h14.1v13.3h-14.1V327.8z"/>
</svg>
