<?xml version="1.0" encoding="utf-8"?>
<!-- Generator: Adobe Illustrator 22.1.0, SVG Export Plug-In . SVG Version: 6.00 Build 0)  -->
<svg version="1.1" id="Capa_1" xmlns="http://www.w3.org/2000/svg" xmlns:xlink="http://www.w3.org/1999/xlink" x="0px" y="0px"
	 viewBox="0 0 488 488" style="enable-background:new 0 0 488 488;" xml:space="preserve">
<style type="text/css">
	.st0{fill:#0256B8;}
</style>
<g>
	<g>
		<path class="st0" d="M437.5,173.3c10.1-9.6,16.5-23.1,16.5-38.1c0-29-23.5-52.5-52.5-52.5S349,106.3,349,135.3
			c0,18.4,9.6,34.6,23.9,44c-9.8,6.8-16.4,18.2-16.4,31v52.5h-30v-37.5c0-26.8-20.3-49-46.3-52.1c10-9.6,16.3-23,16.3-37.9
			c0-29-23.5-52.5-52.5-52.5s-52.5,23.5-52.5,52.5c0,14.9,6.3,28.3,16.3,37.9c-26.1,3.1-46.3,25.2-46.3,52.1v37.5h-30v-52.5
			c0-12.8-6.6-24.3-16.4-31c14.4-9.4,23.9-25.6,23.9-44c0-29-23.5-52.5-52.5-52.5S34,106.3,34,135.3c0,15,6.4,28.5,16.5,38.1
			C32.7,176.2,19,191.6,19,210.3v112.5c0,18.1,12.9,33.3,30,36.8v113.3h15V360.3h67.5v105c0,4.1,3.4,7.5,7.5,7.5h45
			c4.1,0,7.5-3.4,7.5-7.5v-120h45v112.5h-30v15h75v-15h-30V345.3h45v120c0,4.1,3.4,7.5,7.5,7.5h45c4.1,0,7.5-3.4,7.5-7.5v-105H424
			v112.5h15V359.5c17.1-3.5,30-18.7,30-36.8V210.3C469,191.6,455.3,176.2,437.5,173.3z M364,135.3c0-20.7,16.8-37.5,37.5-37.5
			s37.5,16.8,37.5,37.5s-16.8,37.5-37.5,37.5S364,156,364,135.3z M206.5,135.3c0-20.7,16.8-37.5,37.5-37.5s37.5,16.8,37.5,37.5
			s-16.8,37.5-37.5,37.5S206.5,156,206.5,135.3z M255.7,187.8L244,218.9l-11.7-31.1H255.7z M176.5,225.3c0-20.7,16.8-37.5,37.5-37.5
			h2.3l20.7,55.1c1.1,2.9,3.9,4.9,7,4.9c3.1,0,5.9-2,7-4.9l20.6-55.1h2.3c20.7,0,37.5,16.8,37.5,37.5v37.5h-30
			c-4.1,0-7.5,3.4-7.5,7.5v30h-60v-30c0-4.1-3.4-7.5-7.5-7.5h-30L176.5,225.3L176.5,225.3z M49,135.3c0-20.7,16.8-37.5,37.5-37.5
			s37.5,16.8,37.5,37.5s-16.8,37.5-37.5,37.5S49,156,49,135.3z M176.5,457.8h-30v-105c0-4.1-3.4-7.5-7.5-7.5H56.5
			c-12.4,0-22.5-10.1-22.5-22.5V210.3c0-12.4,10.1-22.5,22.5-22.5H94c12.4,0,22.5,10.1,22.5,22.5v60c0,4.1,3.4,7.5,7.5,7.5h75v22.5
			H94v-67.5H79v75c0,4.1,3.4,7.5,7.5,7.5H154c12.4,0,22.5,10.1,22.5,22.5V457.8z M297.3,330.3H190.7c-1.1-5.5-3.4-10.7-6.7-15h22.5
			h75H304C300.7,319.6,298.5,324.7,297.3,330.3z M454,322.8c0,12.4-10.1,22.5-22.5,22.5H349c-4.1,0-7.5,3.4-7.5,7.5v105h-30v-120
			c0-12.4,10.1-22.5,22.5-22.5h67.5c4.1,0,7.5-3.4,7.5-7.5v-75h-15v67.5H289v-22.5h75c4.1,0,7.5-3.4,7.5-7.5v-60
			c0-12.4,10.1-22.5,22.5-22.5h37.5c12.4,0,22.5,10.1,22.5,22.5V322.8z"/>
	</g>
</g>
<g>
	<g>
		<rect x="236.5" y="262.8" class="st0" width="15" height="15"/>
	</g>
</g>
<g>
	<g>
		<path class="st0" d="M206.5,15.3h-105c-4.1,0-7.5,3.4-7.5,7.5v37.5c0,4.1,3.4,7.5,7.5,7.5h30v15c0,2.8,1.6,5.4,4.1,6.8
			c1,0.6,2.2,0.8,3.4,0.8c1.6,0,3.2-0.5,4.5-1.5l28-21h35c4.1,0,7.5-3.4,7.5-7.5V22.8C214,18.6,210.6,15.3,206.5,15.3z M199,52.8
			h-30c-1.6,0-3.2,0.6-4.5,1.5l-18,13.5v-7.5c0-4.1-3.4-7.5-7.5-7.5h-30V30.3h90V52.8z"/>
	</g>
</g>
<g>
	<g>
		<rect x="281.5" y="37.8" class="st0" width="15" height="15"/>
	</g>
</g>
<g>
	<g>
		<rect x="311.5" y="37.8" class="st0" width="15" height="15"/>
	</g>
</g>
<g>
	<g>
		<rect x="341.5" y="37.8" class="st0" width="15" height="15"/>
	</g>
</g>
</svg>
