<?xml version="1.0" encoding="utf-8"?>
<!-- Generator: Adobe Illustrator 22.1.0, SVG Export Plug-In . SVG Version: 6.00 Build 0)  -->
<svg version="1.1" id="Capa_1" xmlns="http://www.w3.org/2000/svg" xmlns:xlink="http://www.w3.org/1999/xlink" x="0px" y="0px"
	 viewBox="0 0 512 512" style="enable-background:new 0 0 512 512;" xml:space="preserve">
<style type="text/css">
	.st0{fill:#0256B8;}
</style>
<g>
	<g>
		<path class="st0" d="M182.7,375.4c-0.1-0.6-0.3-1.1-0.5-1.7c-0.2-0.5-0.5-1-0.8-1.5c-0.3-0.5-0.7-0.9-1.1-1.3
			c-0.4-0.4-0.9-0.8-1.3-1.1c-0.5-0.3-1-0.6-1.5-0.8c-0.5-0.2-1.1-0.4-1.6-0.5c-1.1-0.2-2.3-0.2-3.4,0c-0.6,0.1-1.1,0.3-1.7,0.5
			c-0.5,0.2-1,0.5-1.5,0.8c-0.5,0.3-0.9,0.7-1.3,1.1c-0.4,0.4-0.8,0.9-1.1,1.3c-0.3,0.5-0.6,1-0.8,1.5c-0.2,0.5-0.4,1.1-0.5,1.7
			c-0.1,0.6-0.2,1.1-0.2,1.7c0,0.6,0.1,1.2,0.2,1.7c0.1,0.6,0.3,1.1,0.5,1.6c0.2,0.5,0.5,1,0.8,1.5c0.3,0.5,0.7,0.9,1.1,1.3
			c0.4,0.4,0.9,0.8,1.3,1.1c0.5,0.3,1,0.6,1.5,0.8c0.5,0.2,1.1,0.4,1.7,0.5c0.6,0.1,1.1,0.2,1.7,0.2s1.2-0.1,1.7-0.2
			c0.6-0.1,1.1-0.3,1.6-0.5c0.5-0.2,1-0.5,1.5-0.8c0.5-0.3,0.9-0.7,1.3-1.1c0.4-0.4,0.8-0.9,1.1-1.3c0.3-0.5,0.6-1,0.8-1.5
			c0.2-0.5,0.4-1.1,0.5-1.6c0.1-0.6,0.2-1.1,0.2-1.7C182.8,376.6,182.8,376,182.7,375.4z"/>
	</g>
</g>
<g>
	<g>
		<path class="st0" d="M435.3,378.2c0-0.1-0.1-0.2-0.1-0.3c-8.1-18.9-27.1-25.9-49.5-18.3l-61.2,16.9c-3.5-10.7-12.4-19.8-24.9-24.5
			c-0.1,0-0.2-0.1-0.2-0.1L232,329.2c-5.6-7.2-23.2-25.8-56-25.8c-23,0-43.3,15.8-54.9,32.9H39.8c-4.9,0-8.8,3.9-8.8,8.8v110.8
			c0,4.9,3.9,8.8,8.8,8.8H92c4.9,0,8.8-3.9,8.8-8.8v-7.6h24.5c4.9,0,8.8-3.9,8.8-8.8V437c14.3,1.2,19,4,32.1,11.5
			c10.1,5.8,25.3,14.6,52.8,27c0.1,0.1,0.3,0.1,0.4,0.2c5.3,2.1,15.6,5.3,28.3,5.3c8.8,0,18.8-1.6,29.1-6.2l135.3-48.5
			c0.2-0.1,0.5-0.2,0.7-0.3C425.8,420,445.1,403.3,435.3,378.2z M83.3,447.1H48.6v-93.2h34.7V447.1z M116.6,430.7h-15.7v-76.9h15.7
			V430.7z M405.9,409.9l-135.3,48.4c-0.1,0-0.3,0.1-0.4,0.2c-0.1,0-0.2,0.1-0.4,0.2c-18.8,8.7-36.8,3.5-43.8,0.7
			c-26.5-11.9-40.7-20.1-51-26.1c-14.4-8.3-21.3-12.3-40.9-13.9v-70.8c8.3-13.7,24.5-27.6,41.9-27.6c29.9,0,42.5,19.4,43,20.2
			c1.1,1.7,2.7,3.1,4.7,3.7l69.9,23.7c11.2,4.2,17.1,13.7,14.3,23.3c-1.3,4.4-4.1,8-8.1,10.3c-4,2.2-8.5,2.8-12.9,1.5l-78.7-25
			c-4.6-1.5-9.6,1.1-11,5.7c-1.5,4.6,1.1,9.6,5.7,11l78.9,25c0.1,0,0.2,0.1,0.3,0.1c3.1,0.9,6.4,1.3,9.5,1.3
			c5.8,0,11.6-1.5,16.8-4.4c8.1-4.5,14-11.9,16.5-20.8c0.2-0.7,0.4-1.4,0.5-2.1l66-18.3c9.5-3.3,22-4.4,27.6,8.4
			C424.7,399.7,409.7,408,405.9,409.9z"/>
	</g>
</g>
<g>
	<g>
		<path class="st0" d="M346.6,146.6c-0.1-0.6-0.3-1.1-0.5-1.7c-0.2-0.5-0.5-1-0.8-1.5c-0.3-0.5-0.7-0.9-1.1-1.3s-0.9-0.8-1.3-1.1
			c-0.5-0.3-1-0.6-1.5-0.8c-0.5-0.2-1.1-0.4-1.6-0.5c-1.1-0.2-2.3-0.2-3.4,0c-0.6,0.1-1.1,0.3-1.6,0.5c-0.5,0.2-1,0.5-1.5,0.8
			c-0.5,0.3-0.9,0.7-1.3,1.1c-0.4,0.4-0.8,0.9-1.1,1.3c-0.3,0.5-0.6,1-0.8,1.5c-0.2,0.5-0.4,1.1-0.5,1.7c-0.1,0.6-0.2,1.1-0.2,1.7
			c0,0.6,0.1,1.2,0.2,1.7c0.1,0.6,0.3,1.1,0.5,1.6c0.2,0.5,0.5,1,0.8,1.5c0.3,0.5,0.7,0.9,1.1,1.3c0.4,0.4,0.9,0.8,1.3,1.1
			c0.5,0.3,1,0.6,1.5,0.8c0.5,0.2,1.1,0.4,1.6,0.5c0.6,0.1,1.1,0.2,1.7,0.2c0.6,0,1.2-0.1,1.7-0.2c0.6-0.1,1.1-0.3,1.6-0.5
			c0.5-0.2,1-0.5,1.5-0.8c0.5-0.3,0.9-0.7,1.3-1.1c0.4-0.4,0.8-0.9,1.1-1.3c0.3-0.5,0.6-1,0.8-1.5c0.2-0.5,0.4-1.1,0.5-1.6
			c0.1-0.6,0.2-1.1,0.2-1.7C346.7,147.8,346.7,147.2,346.6,146.6z"/>
	</g>
</g>
<g>
	<g>
		<path class="st0" d="M472.2,60.8H420c-4.9,0-8.8,3.9-8.8,8.8v7.6h-24.5c-4.9,0-8.8,3.9-8.8,8.8v2.5c-14.3-1.2-19-4-32.1-11.5
			c-10.1-5.8-25.3-14.6-52.8-27c-0.1-0.1-0.3-0.1-0.4-0.2c-8.9-3.5-32.4-10.4-57.4,0.9l-35.4,12.7L170,33.6c-3.4-3.4-9-3.4-12.4,0
			l-97.9,97.9c-3.2,3.2-3.8,8.7,0,12.4l167.2,167.2c2.7,2.7,8.9,3.5,12.4,0l89.4-89.4c2.3,0.2,4.7,0.3,7.2,0.3
			c23,0,43.3-15.8,54.9-32.9h81.4c4.9,0,8.8-3.9,8.8-8.8V69.6C481,64.7,477.1,60.8,472.2,60.8z M163.8,52.2l20,20
			c-6,3.7-12.8,5.7-20,5.7c-7.2,0-14.1-2-20-5.7L163.8,52.2z M98.4,157.7l-20-20l20-20c3.7,6,5.7,12.8,5.7,20
			C104,144.9,102.1,151.8,98.4,157.7z M233.2,292.5l-20-20c12.2-7.5,27.8-7.5,40.1,0L233.2,292.5z M265.9,259.8
			c-19.4-14.1-46-14.1-65.4,0L111,170.4c6.9-9.4,10.6-20.8,10.6-32.7c0-11.9-3.7-23.3-10.6-32.7l20.1-20.1
			c9.4,6.9,20.8,10.6,32.7,10.6s23.3-3.7,32.7-10.6l19,19c-4.1,0.6-8.1,2-11.8,4c-6.3,3.5-11.2,8.8-14.3,15.1
			c-9.9,1.8-19.1,6.6-26.3,13.8c-19.5,19.5-19.5,51.3,0,70.9c9.8,9.8,22.6,14.7,35.4,14.7c12.8,0,25.7-4.9,35.4-14.7
			c6.4-6.4,10.8-14.2,13-22.7l29.7,10.1c-3.3,15.5,0.1,31.8,9.3,44.5L265.9,259.8z M212.4,173.4c0.1,0,0.2,0.1,0.2,0.1l17.6,6
			c-1.3,6-4.3,11.5-8.8,15.9c-12.7,12.7-33.3,12.7-46,0c-12.7-12.7-12.7-33.3,0-46c3.1-3.1,6.7-5.5,10.6-7.1
			C187.7,155.8,197.4,167.8,212.4,173.4z M298.6,227.1c-3.4-5.5-5.3-11.8-5.6-18.3c4.2,3,9.4,6,15.5,8.4L298.6,227.1z M377.9,176.9
			c-8.3,13.7-24.5,27.6-41.9,27.6c-3.3,0-6.3-0.2-9.2-0.6c0,0,0,0,0,0c-19-2.8-29.2-13.5-32.6-17.8c-0.2-0.3-0.9-1.3-1.1-1.4
			c-1-1.8-2.7-3.3-4.8-4l-69.9-23.7c-11.2-4.2-17-13.7-14.3-23.3c0,0,0,0,0,0c0,0,0,0,0,0c1.3-4.4,4.1-8,8.1-10.2
			c4-2.2,8.5-2.8,12.9-1.5l78.7,25c4.6,1.5,9.6-1.1,11-5.7c1.5-4.6-1.1-9.6-5.7-11l-62.6-19.8l-0.5-0.5c0,0,0,0,0,0l-32.4-32.4
			l27.9-10c0.1,0,0.2-0.1,0.3-0.1c0,0,0.1,0,0.1,0c0.1,0,0.2-0.1,0.4-0.2c18.8-8.7,36.7-3.5,43.8-0.7c26.5,11.9,40.7,20.1,51,26.1
			c14.4,8.3,21.3,12.3,40.9,13.9V176.9z M411.2,171.6h-15.7V94.7h15.7V171.6z M463.4,171.6h-34.7V78.4h34.7V171.6z"/>
	</g>
</g>
</svg>
