<?xml version="1.0" encoding="utf-8"?>
<!-- Generator: Adobe Illustrator 22.0.1, SVG Export Plug-In . SVG Version: 6.00 Build 0)  -->
<svg version="1.1" id="Слой_1" xmlns="http://www.w3.org/2000/svg" xmlns:xlink="http://www.w3.org/1999/xlink" x="0px" y="0px"
	 viewBox="0 0 152 85.8" enable-background="new 0 0 152 85.8" xml:space="preserve">
<g>
	<path fill="#435DA5" d="M0.7,2.4v81c0,0,21.2,0,21.9,0s8.7-1.3,8.7-1.3s14.3-2.8,23.8-16.8c5-7.4,7.3-18,6.7-24.8
		c-0.7-7.7-1.9-17-13.2-27.8c-8.4-8-18.9-9.8-23-10.2c-2.6-0.2-4.5-0.2-4.5-0.2L0.7,2.4z"/>
	<g>
		
			<rect x="94.4" y="-2.2" transform="matrix(0.7071 -0.7071 0.7071 0.7071 1.689 89.9182)" fill="#8AB9CB" width="29.9" height="90.3"/>
		
			<rect x="94.5" y="-2.1" transform="matrix(0.7071 0.7071 -0.7071 0.7071 62.4844 -64.8162)" fill="#8AB9CB" width="29.9" height="90.3"/>
	</g>
</g>
</svg>
