<?xml version="1.0" encoding="utf-8"?>
<!-- Generator: Adobe Illustrator 22.0.1, SVG Export Plug-In . SVG Version: 6.00 Build 0)  -->
<svg version="1.1" id="burger" xmlns="http://www.w3.org/2000/svg" xmlns:xlink="http://www.w3.org/1999/xlink" x="0px" y="0px"
	 viewBox="0 0 325.6 301.5" style="enable-background:new 0 0 325.6 301.5;" fill="#000000" xml:space="preserve">
<path d="M313.5,60.6H13.8c-6.6,0-12-5.4-12-12V16.3c0-6.6,5.4-12,12-12h299.7c6.6,0,12,5.4,12,12v32.3
	C325.5,55.2,320.1,60.6,313.5,60.6z"/>
<path d="M313.5,177.9H13.8c-6.6,0-12-5.4-12-12v-32.3c0-6.6,5.4-12,12-12h299.7c6.6,0,12,5.4,12,12v32.3
	C325.5,172.5,320.1,177.9,313.5,177.9z"/>
<path d="M313.5,295.2H13.8c-6.6,0-12-5.4-12-12v-32.3c0-6.6,5.4-12,12-12h299.7c6.6,0,12,5.4,12,12v32.3
	C325.5,289.8,320.1,295.2,313.5,295.2z"/>
</svg>
