<?xml version="1.0" encoding="utf-8"?>
<!-- Generator: Adobe Illustrator 22.0.1, SVG Export Plug-In . SVG Version: 6.00 Build 0)  -->
<svg version="1.1" id="close" xmlns="http://www.w3.org/2000/svg" xmlns:xlink="http://www.w3.org/1999/xlink" x="0px" y="0px"
	 viewBox="0 0 325.6 301.5" fill="#ffffff" enable-background="new 0 0 325.6 301.5" xml:space="preserve">
<g>
	<path d="M306.9,41.7l-258,249.4c-4.7,4.5-11.9,4.9-16,1l-20.3-19.4c-4.1-4-3.7-10.9,0.9-15.4l258-249.5
		c4.7-4.5,11.9-4.9,16-1l20.3,19.4C312,30.3,311.6,37.2,306.9,41.7z"/>
	<path d="M53.9,7.4l258.5,249c4.7,4.5,4.7,11.8,0.1,16.2L290,294.2c-4.6,4.4-12.2,4.4-16.8-0.1L14.7,45.1
		C10,40.6,10,33.3,14.6,28.9L37,7.3C41.6,2.9,49.2,2.9,53.9,7.4z"/>
</g>
</svg>
