<?xml version="1.0" encoding="utf-8"?>
<!-- Generator: Adobe Illustrator 22.1.0, SVG Export Plug-In . SVG Version: 6.00 Build 0)  -->
<svg version="1.1" id="Слой_1" xmlns="http://www.w3.org/2000/svg" xmlns:xlink="http://www.w3.org/1999/xlink" x="0px" y="0px"
	 viewBox="0 0 283.5 283.5" style="enable-background:new 0 0 283.5 283.5;" xml:space="preserve">
<style type="text/css">
	.st0{fill:#0256B8;}
</style>
<path class="st0" d="M164.5,92.9c-3,0-5.5,2.3-5.5,5.2s2.5,5.2,5.5,5.2c3,0,5.5-2.3,5.5-5.2C170,95.2,167.5,92.9,164.5,92.9z"/>
<path class="st0" d="M131.1,194.7c2.1-2,2.1-5.3,0-7.3c-2.1-2-5.6-2-7.8,0c-2.1,2-2.1,5.3,0,7.3C125.5,196.8,129,196.8,131.1,194.7z
	"/>
<path class="st0" d="M65,279c2.1,2,5.6,2,7.8,0.1l26.7-24.9c4.5-4.3,5.9-10.6,3.9-16.2l5.7-5.3c3.1-2.8,7.2-4.4,11.5-4.4h73.2
	c13,0,25.3-4.7,34.6-13.3c0.4-0.4-2.9,3.3,50-56.4c7.8-8.8,6.7-21.9-2.6-29.4c-9.2-7.3-23-6.3-30.9,2.3l-32.5,31.6
	c-4.1-4.8-10.4-7.8-17.1-7.8h-61.4c-8.8-3.4-18-5.2-27.6-5.2c-26.5,0-49.7,11.6-62.1,33.3c-5.2-0.9-10.7,0.6-14.7,4.3L3.1,212.7
	c-2.1,2-2.1,5.3,0,7.3L65,279z M106.1,160.6c8.4,0,16.6,1.6,24.2,4.8c0.7,0.3,1.4,0.4,2.2,0.4h62.6c5.9,0,11,4.6,11,10.4
	c0,5.7-5,10.4-11,10.4h-44.9c-3,0-5.5,2.3-5.5,5.2c0,2.9,2.5,5.2,5.5,5.2h44.9c12.2,0,22-9.3,22-20.8c0-0.9-0.1-1.8-0.2-2.7
	c31.4-30.6,35.9-34.9,36.1-35.1c3.9-4.4,10.9-5,15.5-1.3s5.2,10.3,1.3,14.7l-49.4,55.9c-7.2,6.6-16.7,10.2-26.7,10.2h-73.1
	c-7.2,0-14,2.6-19.1,7.3l-4.7,4.3l-43.1-40.8C63.7,170.9,82.6,160.6,106.1,160.6z M37.1,195.2c1.8-1.7,4.6-2,6.8-0.7
	c0.8,0.5,47.9,45.1,48.2,45.6c1.6,2,1.4,5-0.5,6.8L69,268.1l-54.1-51.6L37.1,195.2z"/>
<path class="st0" d="M87.5,124.2h132.1c9.1,0,16.5-7,16.5-15.6c0-13.1,0-69.7,0-79.2c0-8.6-7.4-15.6-16.5-15.6H87.5
	c-9.1,0-16.5,7-16.5,15.6v79.2C70.9,117.2,78.3,124.2,87.5,124.2z M225.1,55.4H81.9V45h143.1V55.4z M219.6,113.7H87.5
	c-3,0-5.5-2.3-5.5-5.2V65.8h143.1v42.7C225.1,111.4,222.6,113.7,219.6,113.7z M87.5,24.1h132.1c3,0,5.5,2.3,5.5,5.2v5.2H81.9v-5.2
	C81.9,26.5,84.4,24.1,87.5,24.1z"/>
<path class="st0" d="M208.6,92.9h-22c-3,0-5.5,2.3-5.5,5.2s2.5,5.2,5.5,5.2h22c3,0,5.5-2.3,5.5-5.2
	C214.1,95.2,211.6,92.9,208.6,92.9z"/>
</svg>
