<?xml version="1.0" encoding="utf-8"?>
<!-- Generator: Adobe Illustrator 22.1.0, SVG Export Plug-In . SVG Version: 6.00 Build 0)  -->
<svg version="1.1" id="Layer_1" xmlns="http://www.w3.org/2000/svg" xmlns:xlink="http://www.w3.org/1999/xlink" x="0px" y="0px"
	 viewBox="0 0 512 512" style="enable-background:new 0 0 512 512;" xml:space="preserve">
<style type="text/css">
	.st0{fill:#0256B8;}
</style>
<title>Commercial delivery</title>
<path class="st0" d="M453.6,226.8h-22.7c-2.7-9.6-11.4-16.3-21.3-16.4h-24.2v-59.2c0.1-2.3-1.1-4.4-3-5.5L211.4,47
	c-2-1.1-4.4-1.1-6.3,0L34.2,145.7c-2,1.1-3.2,3.2-3.2,5.5v197.4c0,2.3,1.2,4.4,3.2,5.5l170.9,98.7c1,0.6,2.1,0.9,3.2,0.9
	c1.1,0,2.3-0.3,3.3-0.9l90-51.9v37.5c0,14.9,12,27,26.9,27.1c0.1,0,0.2,0,0.3,0h124.8c15,0.1,27.3-11.9,27.4-26.9c0-0.1,0-0.1,0-0.2
	V254.3C481,239.2,468.7,226.9,453.6,226.8z M409.8,223.2c5.1,0,9.3,4.1,9.3,9.3l0,0v0.6c0,5.1-4.1,9.3-9.3,9.3c0,0,0,0,0,0h-37.1
	c-5.1,0-9.3-4.1-9.3-9.3l0,0v-0.6c0-5.1,4.1-9.3,9.3-9.3c0,0,0,0,0,0H409.8z M208.3,59.9l71,41l-158.2,91.3l-71-41L208.3,59.9z
	 M202.3,436.2L43.8,344.9V162.2l158.5,91.3V436.2z M208.3,242.5l-74.4-43l158.2-91.3l74.4,43L208.3,242.5z M301.5,254.3v131.9
	l-86.5,50V253.6l157.6-91.3v48.2h0.2c-10,0.1-18.7,6.8-21.3,16.4h-22.7C313.7,226.9,301.5,239.2,301.5,254.3z M468.2,438.4
	c0,7.9-6.5,14.4-14.5,14.3c-0.1,0-0.1,0-0.2,0H328.8c-7.9,0.1-14.3-6.1-14.5-14c0-0.1,0-0.2,0-0.3V254.3
	c-0.1-8.1,6.4-14.7,14.4-14.7c0,0,0,0,0,0h22.9c2.8,9.3,11.4,15.6,21.1,15.5h36.8c9.7,0.1,18.3-6.2,21.1-15.5h22.9
	c8.1,0.1,14.6,6.6,14.7,14.7V438.4z"/>
<path class="st0" d="M336.1,318.8h6.7c3.5,0,6.4-2.9,6.4-6.4c0-3.5-2.9-6.4-6.4-6.4h-0.3v-17.3h17.6c0.8,2.6,3.3,4.4,6.1,4.3
	c3.5,0,6.4-2.8,6.4-6.4v-4.3c0-3.5-2.9-6.4-6.4-6.4h-30c-3.5,0-6.3,2.9-6.3,6.4c0,0,0,0,0,0v30C329.8,316,332.6,318.8,336.1,318.8
	C336.1,318.8,336.1,318.8,336.1,318.8z"/>
<path class="st0" d="M336.2,377.1h30.1c3.5,0,6.4-2.9,6.4-6.4v-30.1c0-3.5-2.9-6.4-6.4-6.4h-30.1c-3.5,0-6.4,2.9-6.4,6.4v30.1
	C329.8,374.3,332.6,377.1,336.2,377.1z M342.5,347.1h17.3v17.3h-17.3V347.1z"/>
<path class="st0" d="M342.8,422.7h-0.3v-17.3h17.2c0.1,3.5,3,6.4,6.5,6.3c3.4-0.1,6.2-2.8,6.3-6.3v-6.1c0-3.6-2.9-6.5-6.4-6.6h-30
	c-3.6,0.1-6.4,3.1-6.3,6.6v30c0,3.4,2.7,6.2,6.1,6.2c0.1,0,0.1,0,0.2,0h6.7c3.5,0,6.4-2.9,6.4-6.4
	C349.2,425.5,346.3,422.7,342.8,422.7L342.8,422.7z"/>
<path class="st0" d="M380.8,283.9l-18.7,18.7l-5.7-5.7c-2.5-2.5-6.5-2.5-9,0s-2.5,6.5,0,9l10.2,10.2c2.5,2.5,6.5,2.5,9,0
	c0,0,0,0,0,0l23.2-23.2c2.5-2.5,2.5-6.5,0-9S383.3,281.4,380.8,283.9L380.8,283.9z"/>
<path class="st0" d="M380.8,401.6l-18.7,18.7l-5.7-5.7c-2.5-2.5-6.5-2.5-9,0s-2.5,6.5,0,9l10.2,10.2c2.5,2.5,6.5,2.5,9,0
	c0,0,0,0,0,0l23.2-23.2c2.5-2.5,2.5-6.5,0-9S383.3,399.1,380.8,401.6L380.8,401.6z"/>
<path class="st0" d="M446.3,291.5h-40c-3.5,0-6.4,2.9-6.4,6.4c0,3.5,2.9,6.4,6.4,6.4h40c3.5,0,6.4-2.9,6.4-6.4
	C452.6,294.4,449.8,291.5,446.3,291.5z"/>
<path class="st0" d="M446.3,349.8h-40c-3.5,0-6.4,2.9-6.4,6.4c0,3.5,2.9,6.4,6.4,6.4h40c3.5,0,6.4-2.9,6.4-6.4
	C452.6,352.7,449.8,349.8,446.3,349.8z"/>
<path class="st0" d="M446.3,408.1h-40c-3.5,0-6.4,2.9-6.4,6.4c0,3.5,2.9,6.4,6.4,6.4h40c3.5,0,6.4-2.9,6.4-6.4
	C452.6,411,449.8,408.1,446.3,408.1z"/>
</svg>
