<?xml version="1.0" encoding="utf-8"?>
<!-- Generator: Adobe Illustrator 22.1.0, SVG Export Plug-In . SVG Version: 6.00 Build 0)  -->
<svg version="1.1" id="Слой_1" xmlns="http://www.w3.org/2000/svg" xmlns:xlink="http://www.w3.org/1999/xlink" x="0px" y="0px"
	 viewBox="0 0 496 496" style="enable-background:new 0 0 496 496;" xml:space="preserve">
<style type="text/css">
	.st0{fill:#0B1DFF;}
</style>
<path class="st0" d="M488,271.6c-30.8,0-55.9-25.1-55.9-55.9v-8h-79.9V0H85.3L0.7,84.6v378.8H323c14.7,12.7,31.5,23.4,50,31.3
	l3.1,1.3l3.1-1.3C450.2,464.3,496,394.8,496,317.7v-46.1H488z M28,79.9l52.6-52.6v52.6H28z M48.6,95.9h47.9V47.9h207.7v79.9H48.6
	V95.9z M16.7,95.9h16v47.9h287.6V32H96.6V16h239.7v191.7h-16v8c0,30.8-25.1,55.9-55.9,55.9h-8v46.1c0,49,18.6,94.9,50.3,129.7H16.7
	V95.9z M480,317.7c0,69.6-40.6,132.3-103.9,160.9C313,450,272.3,387.3,272.3,317.7v-30.6c33.3-3.7,59.8-30.2,63.5-63.5h80.8
	c3.7,33.3,30.2,59.8,63.5,63.5L480,317.7L480,317.7z"/>
<path class="st0" d="M410.6,323.5l20.9-48.7l-14.7-6.3l-20.1,47c-6.3-2.5-13.2-3.9-20.4-3.9c-30.8,0-55.9,25.1-55.9,55.9
	s25.1,55.9,55.9,55.9s55.9-25.1,55.9-55.9C432.1,349.6,423.6,333.7,410.6,323.5z M376.2,407.4c-22,0-39.9-17.9-39.9-39.9
	s17.9-39.9,39.9-39.9c5,0,9.7,1,14.1,2.7l-17.7,41.2l-16-10.6l-8.9,13.3l32,21.3l24.2-56.5c7.5,7.3,12.2,17.4,12.2,28.6
	C416.1,389.5,398.2,407.4,376.2,407.4z"/>
<path class="st0" d="M32.7,431.4h207.7V287.6H32.7V431.4z M48.6,303.6h175.8v111.8H48.6V303.6z"/>
<path class="st0" d="M64.6,159.8h175.8v16H64.6V159.8z"/>
<path class="st0" d="M32.7,159.8h16v16h-16V159.8z"/>
<path class="st0" d="M32.7,191.7h207.7v16H32.7V191.7z"/>
<path class="st0" d="M32.7,223.7h207.7v16H32.7V223.7z"/>
<path class="st0" d="M32.7,255.6h207.7v16H32.7V255.6z"/>
</svg>
