<?xml version="1.0" encoding="utf-8"?>
<!-- Generator: Adobe Illustrator 22.1.0, SVG Export Plug-In . SVG Version: 6.00 Build 0)  -->
<svg version="1.1" id="Слой_1" xmlns="http://www.w3.org/2000/svg" xmlns:xlink="http://www.w3.org/1999/xlink" x="0px" y="0px"
	 viewBox="0 0 511 512" style="enable-background:new 0 0 511 512;" xml:space="preserve">
<style type="text/css">
	.st0{fill:#0B1DFF;}
</style>
<path class="st0" d="M296.4,152c-5.5,0-10,4.5-10,10c0,5.5,4.5,10,10,10s10-4.5,10-10C306.4,156.4,301.9,152,296.4,152z"/>
<path class="st0" d="M235.8,347.3c3.9-3.9,3.9-10.2,0-14.1c-3.9-3.9-10.2-3.9-14.1,0c-3.9,3.9-3.9,10.2,0,14.1
	C225.6,351.2,231.9,351.2,235.8,347.3z"/>
<path class="st0" d="M115.7,509c3.9,3.9,10.2,3.9,14.1,0.1l48.5-47.8c8.2-8.2,10.7-20.4,7.1-31l10.4-10.1c5.6-5.4,13-8.4,20.8-8.4
	h132.9c23.6,0,45.9-9.1,62.8-25.5c0.7-0.7-5.3,6.4,90.7-108.3c14.2-16.8,12.1-42.1-4.8-56.4c-16.7-14.1-41.8-12.1-56.1,4.5l-59,60.6
	c-7.4-9.2-18.8-14.9-31.1-14.9H240.5c-15.9-6.6-32.7-10-50.1-10c-48.1,0-90.2,22.2-112.7,63.9c-9.5-1.8-19.5,1.1-26.7,8.3L3.4,381.8
	c-3.9,3.9-3.9,10.2,0,14.1L115.7,509z M190.4,281.9c15.3,0,30.1,3.1,44,9.2c1.3,0.6,2.6,0.8,4,0.8H352c10.8,0,20,8.8,20,20
	c0,11-9,20-20,20h-81.6c-5.5,0-10,4.5-10,10c0,5.5,4.5,10,10,10H352c22.1,0,40-17.9,40-40c0-1.8-0.1-3.5-0.4-5.2
	c57.1-58.7,65.1-66.9,65.5-67.3c7.1-8.4,19.8-9.5,28.2-2.4c8.4,7.1,9.5,19.8,2.3,28.2l-89.7,107.2c-13.1,12.6-30.3,19.5-48.5,19.5
	H216.6c-13,0-25.4,5-34.7,14l-8.5,8.2l-78.3-78.3C113.4,301.5,147.7,281.9,190.4,281.9z M65.1,348.3c3.3-3.3,8.4-3.9,12.4-1.4
	c1.5,0.9,87,86.6,87.6,87.4c2.9,3.9,2.5,9.5-0.9,13l-41.3,40.7l-98.2-99L65.1,348.3z"/>
<path class="st0" d="M156.5,211.9h239.9c16.5,0,30-13.5,30-30c0-25.2,0-133.8,0-152c0-16.5-13.5-30-30-30H156.5
	c-16.5,0-30,13.5-30,30v152C126.5,198.5,139.9,211.9,156.5,211.9z M406.4,80H146.5V60h259.9V80z M396.4,191.9H156.5
	c-5.5,0-10-4.5-10-10v-82h259.9v82C406.4,187.5,401.9,191.9,396.4,191.9z M156.5,20h239.9c5.5,0,10,4.5,10,10v10H146.5V30
	C146.5,24.5,150.9,20,156.5,20z"/>
<path class="st0" d="M376.4,152h-40c-5.5,0-10,4.5-10,10c0,5.5,4.5,10,10,10h40c5.5,0,10-4.5,10-10C386.4,156.4,381.9,152,376.4,152
	z"/>
</svg>
