<?xml version="1.0" encoding="utf-8"?>
<!-- Generator: Adobe Illustrator 22.1.0, SVG Export Plug-In . SVG Version: 6.00 Build 0)  -->
<svg version="1.1" id="Слой_1" xmlns="http://www.w3.org/2000/svg" xmlns:xlink="http://www.w3.org/1999/xlink" x="0px" y="0px"
	 viewBox="0 0 512 512" style="enable-background:new 0 0 512 512;" xml:space="preserve">
<style type="text/css">
	.st0{fill:#0256B8;}
</style>
<path class="st0" d="M440.6,170.5c4.4-6.3,7-13.9,7-22.1V137c3.4-1.2,5.8-4.5,5.8-8.3V126c0-24.5-19.9-44.4-44.5-44.4
	s-44.5,19.9-44.5,44.4v2.7c0,3.8,2.4,7,5.8,8.3v11.5c0,8.2,2.6,15.8,7,22.1c-22,4.5-38.9,23.4-40.3,46.4h-51.1
	c-4.9,0-8.8,3.9-8.8,8.8v54.5h-35.7v-54.5c0-4.9-3.9-8.8-8.8-8.8h-63.3c-4.9,0-8.8,3.9-8.8,8.8v54.5h-31.6V162.9l61.3-61.3
	l40.9,40.9c3.3,3.3,7.2,5.5,11.3,6.8v14.8L224,182.5c-1.6,1.6-2.6,3.9-2.6,6.2V205c0,4.9,3.9,8.8,8.8,8.8c4.9,0,8.8-3.9,8.8-8.8
	v-12.6l12.2-12.2l12.2,12.2v11.3c0,4.9,3.9,8.8,8.8,8.8c4.9,0,8.8-3.9,8.8-8.8v-14.9c0-2.3-0.9-4.6-2.6-6.2L260,164.2v-15.5
	c3.5-1.3,6.7-3.4,9.5-6.1c5.1-5.1,7.9-11.9,7.9-19.2c0-7.2-2.8-14.1-7.9-19.2l-63.8-63.8c0,0,0,0,0,0c-12.6-12.5-33.1-12.5-45.7,0.1
	l-77.8,77.8c-18.1,3.5-31.8,19.5-31.8,38.6v45.5c0,4.9,3.9,8.8,8.8,8.8c4.9,0,8.8-3.9,8.8-8.8v-12.8c6.2,4.1,13.7,6.6,21.7,6.6
	c8,0,15.5-2.4,21.7-6.6v93.8c-0.4,0.2-0.8,0.4-1.2,0.6c-6.5-2.4-13.4-3.7-20.5-3.7c-7.7,0-15,1.5-21.7,4.2v-17
	c0-4.9-3.9-8.8-8.8-8.8s-8.8,3.9-8.8,8.8v28C38.5,306.1,31,321.6,31,338.9v133.3c0,4.9,3.9,8.8,8.8,8.8h400.8c4.9,0,8.8-3.9,8.8-8.8
	V325.6c17.6-1.2,31.6-15.9,31.6-33.9V220C481,195.6,463.6,175.2,440.6,170.5z M408.5,169.5c-11.4-0.3-20.6-9.6-20.6-21.1v-10.9H430
	v10.9c0,11.5-9.2,20.8-20.6,21.1H408.5z M435.1,119.9h-17.4v-19.3C426.4,103.6,433,110.9,435.1,119.9z M400.1,100.6v19.3h-17.4
	C384.8,110.9,391.5,103.6,400.1,100.6z M394,297.8c12.1,0,22,9.9,22,22c0,12.1-9.9,22-22,22H126.8c-12.1,0-22-9.9-22-22
	c0-12.1,9.9-22,22-22H394z M386.1,359.3h7.9c2.1,0,4.1-0.2,6.2-0.5v104.6h-14.1V359.3z M87.7,325.8c1.2,8.1,5,15.4,10.4,21.1
	c-2.2,2.1-5.2,3.4-8.4,3.4c-6.8,0-12.3-5.5-12.3-12.3C77.3,331.8,81.8,326.8,87.7,325.8z M294.7,234.5h45.7v45.7h-45.7V234.5z
	 M178.2,234.5h45.7v45.7h-45.7V234.5z M160.1,86c3.7,3.7,8.1,6.4,13,7.9l-47.3,47.3c-4-9.3-11.6-16.8-21-20.7l47.5-47.5
	C153.7,77.8,156.3,82.3,160.1,86z M259.8,123.4c0,2.5-1,4.9-2.8,6.7c-3.7,3.7-9.8,3.7-13.5,0l-40.9-40.9l3.1-3.1
	c3.7-3.7,6.4-8.1,7.9-13l43.4,43.4C258.8,118.4,259.8,120.8,259.8,123.4z M193.3,52.9c2.8,2.8,4.3,6.5,4.3,10.4c0,3.6-1.3,7-3.6,9.7
	c-0.2,0.2-0.5,0.4-0.7,0.6c-5.7,5.7-15,5.7-20.8,0c-5.7-5.7-5.7-15,0-20.8c0.1-0.1,0.3-0.3,0.4-0.4
	C178.7,47.1,187.7,47.3,193.3,52.9z M89.6,178.5c-12,0-21.7-9.7-21.7-21.7c0-12,9.7-21.7,21.7-21.7c12,0,21.7,9.7,21.7,21.7
	C111.4,168.8,101.6,178.5,89.6,178.5z M48.6,338.9c0-22.6,18.4-41.1,41.1-41.1c1.4,0,2.8,0.1,4.2,0.2c-2,3.1-3.7,6.5-4.8,10.1
	c-16.2,0.3-29.2,13.6-29.2,29.9c0,16.5,13.4,29.9,29.9,29.9c9.2,0,17.6-4.1,23.2-11.1c4.3,1.6,9,2.5,13.9,2.5h3.9v104.1H48.6V338.9z
	 M368.5,463.4H148.3v-61.9h102.9c4.9,0,8.8-3.9,8.8-8.8c0-4.9-3.9-8.8-8.8-8.8H148.3v-24.6h220.2V463.4z M417.7,463.4v-112
	c6.6-5,11.6-11.9,14.1-20v132H417.7z M463.4,291.7c0,8.2-6.1,15.1-14.1,16.2v-74.7c0-4.9-3.9-8.8-8.8-8.8s-8.8,3.9-8.8,8.8v54.6v0
	v20.3c-5-16.1-20-27.9-37.8-27.9h-7.9v-47c0-4.9-3.9-8.8-8.8-8.8s-8.8,3.9-8.8,8.8v47H358v-54.5c0-2.9-1.4-5.4-3.5-7
	c0.7-17.6,15.2-31.6,32.9-31.6h21.1c0.2,0,0.3,0,0.5,0c0.2,0,0.3,0,0.5,0h21.1c18.2,0,32.9,14.8,32.9,32.9V291.7z"/>
<path class="st0" d="M59.1,246.3c2.3,0,4.6-0.9,6.2-2.6c1.6-1.6,2.6-3.9,2.6-6.2c0-2.3-0.9-4.6-2.6-6.2c-1.6-1.6-3.9-2.6-6.2-2.6
	c-2.3,0-4.6,0.9-6.2,2.6c-1.6,1.6-2.6,3.9-2.6,6.2c0,2.3,0.9,4.6,2.6,6.2C54.6,245.4,56.8,246.3,59.1,246.3z"/>
<path class="st0" d="M89.6,148c-2.3,0-4.6,0.9-6.2,2.6c-1.6,1.6-2.6,3.9-2.6,6.2c0,2.3,0.9,4.6,2.6,6.2s3.9,2.6,6.2,2.6
	c2.3,0,4.6-0.9,6.2-2.6c1.6-1.6,2.6-3.9,2.6-6.2c0-2.3-0.9-4.6-2.6-6.2C94.2,149,92,148,89.6,148z"/>
<path class="st0" d="M176.7,69.4c1.6,1.6,3.9,2.6,6.2,2.6c2.3,0,4.6-0.9,6.2-2.6c1.6-1.6,2.6-3.9,2.6-6.2c0-2.3-0.9-4.6-2.6-6.2
	c-1.6-1.6-3.9-2.6-6.2-2.6c-2.3,0-4.6,0.9-6.2,2.6c-1.6,1.6-2.6,3.9-2.6,6.2C174.1,65.5,175,67.8,176.7,69.4z"/>
<path class="st0" d="M208.5,311c-2.3,0-4.6,0.9-6.2,2.6c-1.6,1.6-2.6,3.9-2.6,6.2c0,2.3,0.9,4.6,2.6,6.2c1.6,1.6,3.9,2.6,6.2,2.6
	s4.6-0.9,6.2-2.6c1.6-1.6,2.6-3.9,2.6-6.2c0-2.3-0.9-4.6-2.6-6.2S210.8,311,208.5,311z"/>
<path class="st0" d="M152.3,311c-2.3,0-4.6,0.9-6.2,2.6c-1.6,1.6-2.6,3.9-2.6,6.2c0,2.3,0.9,4.6,2.6,6.2s3.9,2.6,6.2,2.6
	c2.3,0,4.6-0.9,6.2-2.6s2.6-3.9,2.6-6.2c0-2.3-0.9-4.6-2.6-6.2S154.6,311,152.3,311z"/>
<path class="st0" d="M377.3,328.5c2.3,0,4.6-0.9,6.2-2.6c1.6-1.6,2.6-3.9,2.6-6.2c0-2.3-0.9-4.6-2.6-6.2s-3.9-2.6-6.2-2.6
	s-4.6,0.9-6.2,2.6c-1.6,1.6-2.6,3.9-2.6,6.2c0,2.3,0.9,4.6,2.6,6.2C372.7,327.6,375,328.5,377.3,328.5z"/>
<path class="st0" d="M264.8,311c-2.3,0-4.6,0.9-6.2,2.6c-1.6,1.6-2.6,3.9-2.6,6.2c0,2.3,0.9,4.6,2.6,6.2c1.6,1.6,3.9,2.6,6.2,2.6
	s4.6-0.9,6.2-2.6c1.6-1.6,2.6-3.9,2.6-6.2c0-2.3-0.9-4.6-2.6-6.2S267.1,311,264.8,311z"/>
<path class="st0" d="M321,311c-2.3,0-4.6,0.9-6.2,2.6c-1.6,1.6-2.6,3.9-2.6,6.2c0,2.3,0.9,4.6,2.6,6.2c1.6,1.6,3.9,2.6,6.2,2.6
	s4.6-0.9,6.2-2.6c1.6-1.6,2.6-3.9,2.6-6.2c0-2.3-0.9-4.6-2.6-6.2S323.3,311,321,311z"/>
<path class="st0" d="M284.9,401.5c2.3,0,4.6-0.9,6.2-2.6c1.6-1.6,2.6-3.9,2.6-6.2c0-2.3-0.9-4.6-2.6-6.2s-3.9-2.6-6.2-2.6
	c-2.3,0-4.6,0.9-6.2,2.6s-2.6,3.9-2.6,6.2c0,2.3,0.9,4.6,2.6,6.2C280.3,400.6,282.6,401.5,284.9,401.5z"/>
</svg>
