<?xml version="1.0" encoding="utf-8"?>
<!-- Generator: Adobe Illustrator 22.1.0, SVG Export Plug-In . SVG Version: 6.00 Build 0)  -->
<svg version="1.1" id="Capa_1" xmlns="http://www.w3.org/2000/svg" xmlns:xlink="http://www.w3.org/1999/xlink" x="0px" y="0px"
	 viewBox="0 0 283.5 283.5" style="enable-background:new 0 0 283.5 283.5;" xml:space="preserve">
<style type="text/css">
	.st0{fill:#0256B8;}
</style>
<g>
	<g>
		<path class="st0" d="M130.3,68.2c-13,0-23.5,10.3-23.5,23v16.2c0,12.7,10.6,23,23.5,23s23.5-10.3,23.5-23V91.1
			C153.8,78.4,143.2,68.2,130.3,68.2z M130.3,122.2c-7.9,0-14.4-5.9-15.2-13.5c4.1,3.4,9.4,5.4,15.2,5.4c5.8,0,11.1-2.1,15.2-5.4
			C144.7,116.3,138.2,122.2,130.3,122.2z M130.3,106c-8.4,0-15.2-6.7-15.2-14.9s6.8-14.9,15.2-14.9c8.4,0,15.2,6.7,15.2,14.9
			S138.6,106,130.3,106z"/>
	</g>
</g>
<g>
	<g>
		<path class="st0" d="M130.3,81.7c-2.3,0-4.2,1.8-4.2,4.1v10.8c0,2.2,1.9,4.1,4.2,4.1s4.2-1.8,4.2-4.1V85.7
			C134.4,83.5,132.5,81.7,130.3,81.7z"/>
	</g>
</g>
<g>
	<g>
		<path class="st0" d="M205,19.5c-20.6,0-37.4,16.4-37.4,36.5v16.2l0,0c0,20.1,16.8,36.5,37.4,36.5s37.3-16.3,37.4-36.4v-0.1V55.9
			C242.4,35.8,225.6,19.5,205,19.5z M205,100.6c-13.2,0-24.3-8.6-27.8-20.3C184,87.8,194,92.5,205,92.5c11.1,0,21-4.7,27.8-12.2
			C229.3,92,218.2,100.6,205,100.6z M205,84.4c-16.1,0-29.1-12.8-29.1-28.4S189,27.6,205,27.6s29.1,12.7,29.1,28.4
			C234.1,71.6,221.1,84.4,205,84.4z"/>
	</g>
</g>
<g>
	<g>
		<path class="st0" d="M205,41.1L205,41.1c-2.3,0-4.2,1.8-4.2,4.1v21.6c0,2.2,1.9,4.1,4.2,4.1l0,0c2.3,0,4.2-1.8,4.2-4.1V45.2
			C209.2,42.9,207.3,41.1,205,41.1z"/>
	</g>
</g>
<g>
	<g>
		<path class="st0" d="M281.1,156.7c-5.7-9.6-18.3-13-28.2-7.5c-1.8,0.9-24.8,11.9-43.7,19.7c-2.1,0.9-3.1,3.2-2.2,5.3
			c0.9,2.1,3.3,3,5.4,2.2c19.9-8.2,44-19.8,44.3-20c0.1-0.1,0.2-0.1,0.2-0.1c5.9-3.4,13.6-1.4,17,4.4c4,6.7-2.2,14.1-5.3,17.1
			c-20.6,16.2-77.7,57.9-96.9,57.9c-21.3,0-80.9-12.3-95.5-15.4v-66.2c28.9-4.2,44.2,1.1,76.3,12c9.7,3.3,20.8,7.1,34.3,11.3
			c2,0.9,7.6,3.9,5.4,10.8c-1.3,4.2-5.4,8.2-11.5,7.1c-8.2-1.5-56.3-7.9-58.4-8.2c-2.3-0.3-4.4,1.2-4.7,3.5
			c-0.3,2.2,1.3,4.3,3.5,4.5c0.5,0.1,49.9,6.6,57.9,8.1c1.2,0.2,2.4,0.3,3.6,0.3c8.8,0,15.3-6.2,17.4-13.1
			c2.2-7.2-0.1-16.4-10.2-20.7h-0.1c0,0,0,0-0.1,0c-0.1,0-0.1-0.1-0.2-0.1s-0.1-0.1-0.2-0.1c-13.5-4.2-24.5-7.9-34.3-11.3
			c-32-10.9-48.9-16.7-79.1-12.5v-3.4c0-2.2-1.9-4.1-4.2-4.1H59.5v-4.1c0-2.2-1.9-4.1-4.2-4.1H4.2c-2.3,0-4.2,1.8-4.2,4.1v89.2
			c0,2.2,1.9,4.1,4.2,4.1s4.2-1.8,4.2-4.1v-85.2h43v97.3H43v-4.1c0-2.2-1.9-4.1-4.2-4.1c-2.3,0-4.2,1.8-4.2,4.1v4.1H4.2
			c-2.3,0-4.2,1.8-4.2,4.1c0,2.2,1.9,4.1,4.2,4.1h51.3c2.3,0,4.2-1.8,4.2-4.1v-4.3h12.5c2.3,0,4.2-1.8,4.2-4.1v-2.9
			c17.4,3.7,73.9,15.2,95.5,15.2c11.3,0,31.5-9.9,61.5-30.2c21.6-14.7,40.5-29.5,40.7-29.6c0.1-0.1,0.2-0.2,0.3-0.3
			C283.3,175,285.9,164.8,281.1,156.7z M67.9,223.6L67.9,223.6v3.9h-8.3l0,0v-80.9h8.3V223.6L67.9,223.6z"/>
	</g>
</g>
</svg>
