<?xml version="1.0" encoding="utf-8"?>
<!-- Generator: Adobe Illustrator 22.1.0, SVG Export Plug-In . SVG Version: 6.00 Build 0)  -->
<svg version="1.1" id="Capa_1" xmlns="http://www.w3.org/2000/svg" xmlns:xlink="http://www.w3.org/1999/xlink" x="0px" y="0px"
	 viewBox="0 0 512 512" style="enable-background:new 0 0 512 512;" xml:space="preserve">
<style type="text/css">
	.st0{fill:#0B1DFF;}
</style>
<g>
	<g>
		<path class="st0" d="M235.3,138.5c-23.4,0-42.5,19.1-42.5,42.5v30c0,23.4,19.1,42.5,42.5,42.5c23.4,0,42.5-19.1,42.5-42.5v-30
			C277.8,157.5,258.7,138.5,235.3,138.5z M235.3,238.5c-14.3,0-26.1-11-27.4-25c7.4,6.3,17,10,27.4,10s20-3.8,27.4-10
			C261.4,227.5,249.6,238.5,235.3,238.5z M235.3,208.5c-15.2,0-27.5-12.3-27.5-27.5c0-15.2,12.3-27.5,27.5-27.5
			c15.2,0,27.5,12.3,27.5,27.5C262.8,196.2,250.4,208.5,235.3,208.5z"/>
	</g>
</g>
<g>
	<g>
		<path class="st0" d="M235.3,163.5c-4.1,0-7.5,3.4-7.5,7.5v20c0,4.1,3.4,7.5,7.5,7.5s7.5-3.4,7.5-7.5v-20
			C242.8,166.8,239.4,163.5,235.3,163.5z"/>
	</g>
</g>
<g>
	<g>
		<path class="st0" d="M370.3,48.4c-37.2,0-67.5,30.3-67.5,67.5v30c0,0,0,0,0,0c0,37.2,30.3,67.5,67.5,67.5
			c37.2,0,67.4-30.2,67.5-67.4c0,0,0-0.1,0-0.1v-30C437.8,78.7,407.5,48.4,370.3,48.4z M370.3,198.5c-23.8,0-43.9-15.9-50.3-37.6
			c12.4,13.9,30.4,22.6,50.3,22.6c20,0,38-8.7,50.3-22.6C414.2,182.6,394.1,198.5,370.3,198.5z M370.3,168.5
			c-29,0-52.5-23.6-52.5-52.5s23.6-52.5,52.5-52.5S422.8,87,422.8,116C422.8,144.9,399.3,168.5,370.3,168.5z"/>
	</g>
</g>
<g>
	<g>
		<path class="st0" d="M370.3,88.5L370.3,88.5c-4.1,0-7.5,3.4-7.5,7.5l0,40c0,4.1,3.4,7.5,7.5,7.5h0c4.1,0,7.5-3.4,7.5-7.5l0-40
			C377.8,91.8,374.5,88.5,370.3,88.5z"/>
	</g>
</g>
<g>
	<g>
		<path class="st0" d="M507.7,302.3c-10.3-17.8-33.1-24-51-13.9c-3.3,1.6-44.8,22-79,36.4c-3.8,1.6-5.6,6-4,9.8s6,5.6,9.8,4
			c35.9-15.1,79.5-36.7,80-36.9c0.1-0.1,0.3-0.1,0.4-0.2c10.7-6.2,24.5-2.5,30.7,8.2c7.2,12.4-4,26.1-9.5,31.6
			c-37.2,30-140.3,107.1-175,107.1c-38.4,0-146.1-22.8-172.5-28.5V297.5c52.2-7.7,79.9,2,137.9,22.2c17.6,6.1,37.6,13.1,61.9,20.9
			c3.6,1.6,13.7,7.2,9.8,20c-2.3,7.8-9.8,15.2-20.8,13.1c-14.8-2.8-101.7-14.6-105.4-15.1c-4.1-0.6-7.9,2.3-8.4,6.4s2.3,7.9,6.4,8.4
			c0.9,0.1,90.2,12.2,104.6,14.9c2.2,0.4,4.4,0.6,6.5,0.6c15.9,0,27.6-11.4,31.5-24.2c4-13.4-0.2-30.4-18.5-38.2c0,0-0.1,0-0.1,0
			c0,0,0,0-0.1,0c-0.1,0-0.2-0.1-0.3-0.1c-0.1,0-0.2-0.1-0.3-0.1c-24.3-7.8-44.3-14.7-61.9-20.9c-57.8-20.2-88.3-30.8-142.9-23.1
			V276c0-4.1-3.4-7.5-7.5-7.5h-22.5V261c0-4.1-3.4-7.5-7.5-7.5H7.5c-4.1,0-7.5,3.4-7.5,7.5v165c0,4.1,3.4,7.5,7.5,7.5
			s7.5-3.4,7.5-7.5V268.5h77.7v180h-15V441c0-4.1-3.4-7.5-7.5-7.5s-7.5,3.4-7.5,7.5v7.5H7.5c-4.1,0-7.5,3.4-7.5,7.5s3.4,7.5,7.5,7.5
			h92.7c4.1,0,7.5-3.4,7.5-7.5v-7.9h22.5c4.1,0,7.5-3.4,7.5-7.5v-5.3c31.4,6.8,133.5,28.2,172.5,28.2c20.5,0,56.9-18.3,111.1-55.8
			c39.1-27.1,73.2-54.6,73.6-54.8c0.2-0.2,0.4-0.3,0.6-0.5C511.8,336,516.4,317.3,507.7,302.3z M122.7,425.9
			C122.7,425.9,122.7,425.9,122.7,425.9v7.2h-15v0V283.5h15L122.7,425.9L122.7,425.9z"/>
	</g>
</g>
</svg>
