<?xml version="1.0" encoding="utf-8"?>
<!-- Generator: Adobe Illustrator 22.1.0, SVG Export Plug-In . SVG Version: 6.00 Build 0)  -->
<svg version="1.1" id="Слой_1" xmlns="http://www.w3.org/2000/svg" xmlns:xlink="http://www.w3.org/1999/xlink" x="0px" y="0px"
	 viewBox="0 0 283.5 283.5" style="enable-background:new 0 0 283.5 283.5;" xml:space="preserve">
<style type="text/css">
	.st0{fill:#0256B8;}
</style>
<path class="st0" d="M278.9,163.9c-17.6,0-32-12.8-32-28.6v-4.1h-45.7V25.1H48.4L0,68.4v193.5h184.5c8.4,6.5,18,12,28.6,16l1.8,0.7
	l1.8-0.7c40.6-15.5,66.8-51,66.8-90.4v-23.5H278.9z M15.6,66l30.1-26.9V66H15.6z M27.4,74.1h27.4V49.6h118.9v40.8H27.4V74.1z
	 M9.2,74.1h9.2v24.5h164.6V41.5h-128v-8.2h137.2v97.9h-9.2v4.1c0,15.7-14.4,28.6-32,28.6h-4.6v23.5c0,25,10.6,48.5,28.8,66.3H9.2
	V74.1z M274.3,187.4c0,35.6-23.2,67.6-59.5,82.2c-36.1-14.6-59.4-46.6-59.4-82.2v-15.6c19.1-1.9,34.2-15.4,36.3-32.4H238
	c2.1,17,17.3,30.5,36.3,32.4L274.3,187.4L274.3,187.4z"/>
<path class="st0" d="M234.6,190.4l12-24.9l-8.4-3.2l-11.5,24c-3.6-1.3-7.6-2-11.7-2c-17.6,0-32,12.8-32,28.6s14.4,28.6,32,28.6
	s32-12.8,32-28.6C246.9,203.7,242,195.6,234.6,190.4z M214.9,233.3c-12.6,0-22.8-9.1-22.8-20.4c0-11.2,10.2-20.4,22.8-20.4
	c2.9,0,5.6,0.5,8.1,1.4l-10.1,21l-9.2-5.4l-5.1,6.8l18.3,10.9l13.8-28.9c4.3,3.7,7,8.9,7,14.6C237.7,224.1,227.5,233.3,214.9,233.3z
	"/>
<path class="st0" d="M18.3,245.5h118.9v-73.5H18.3V245.5z M27.4,180.2H128v57.1H27.4V180.2z"/>
<path class="st0" d="M36.6,106.8h100.6v8.2H36.6V106.8z"/>
<path class="st0" d="M18.3,106.8h9.2v8.2h-9.2V106.8z"/>
<path class="st0" d="M18.3,123.1h118.9v8.2H18.3V123.1z"/>
<path class="st0" d="M18.3,139.4h118.9v8.2H18.3V139.4z"/>
<path class="st0" d="M18.3,155.7h118.9v8.2H18.3V155.7z"/>
</svg>
